<?xml version="1.0" encoding="UTF-8" standalone="no"?>
<!-- Created with Inkscape (http://www.inkscape.org/) -->

<svg
   version="1.1"
   id="svg2381"
   width="1600"
   height="1600"
   viewBox="0 0 1600 1600"
   sodipodi:docname="ocean-wave-foam-pdv.svg"
   inkscape:version="1.2 (dc2aedaf03, 2022-05-15)"
   xmlns:inkscape="http://www.inkscape.org/namespaces/inkscape"
   xmlns:sodipodi="http://sodipodi.sourceforge.net/DTD/sodipodi-0.dtd"
   xmlns="http://www.w3.org/2000/svg"
   xmlns:svg="http://www.w3.org/2000/svg">
  <defs
     id="defs2385">
    <clipPath
       clipPathUnits="userSpaceOnUse"
       id="clipPath2415">
      <path
         d="M 0,1200 H 1200 V 0 H 0 Z"
         id="path2413" />
    </clipPath>
  </defs>
  <sodipodi:namedview
     id="namedview2383"
     pagecolor="#ffffff"
     bordercolor="#000000"
     borderopacity="0.25"
     inkscape:showpageshadow="2"
     inkscape:pageopacity="0.0"
     inkscape:pagecheckerboard="0"
     inkscape:deskcolor="#d1d1d1"
     showgrid="false"
     inkscape:zoom="0.523125"
     inkscape:cx="800"
     inkscape:cy="800.95579"
     inkscape:window-width="1920"
     inkscape:window-height="1017"
     inkscape:window-x="-8"
     inkscape:window-y="-8"
     inkscape:window-maximized="1"
     inkscape:current-layer="g2389">
    <inkscape:page
       x="0"
       y="0"
       id="page2387"
       width="1600"
       height="1600" />
  </sodipodi:namedview>
  <g
     id="g2389"
     inkscape:groupmode="layer"
     inkscape:label="Page 1"
     transform="matrix(1.3333333,0,0,-1.3333333,0,1600)">
    <path
       d="M 5.184,6.073 H 1198.565 V 1199.455 H 5.184 Z"
       style="fill:#add7ff;fill-opacity:1;fill-rule:nonzero;stroke:none"
       id="path2391" />
    <g
       id="g2393"
       transform="translate(1198.5654,824.1777)">
      <path
         d="M 0,0 -1056.76,-31.047 0,-55.529 Z"
         style="fill:#c4e2ff;fill-opacity:1;fill-rule:evenodd;stroke:none"
         id="path2395" />
    </g>
    <g
       id="g2397"
       transform="translate(5.1836,755.7534)">
      <path
         d="M 0,0 1056.757,-31.728 H 0 Z"
         style="fill:#deefff;fill-opacity:1;fill-rule:evenodd;stroke:none"
         id="path2399" />
    </g>
    <g
       id="g2401"
       transform="translate(5.1836,628.8247)">
      <path
         d="m 0,0 1193.382,-45.611 v -57.511 L 0,-134.85 Z"
         style="fill:#c4e2ff;fill-opacity:1;fill-rule:evenodd;stroke:none"
         id="path2403" />
    </g>
    <g
       id="g2405"
       transform="translate(1198.5654,673.9932)">
      <path
         d="M 0,0 -1193.382,14.15 V -1.072 L 0,-56.517 Z"
         style="fill:#c4e2ff;fill-opacity:1;fill-rule:evenodd;stroke:none"
         id="path2407" />
    </g>
    <g
       id="g2409">
      <g
         id="g2411"
         clip-path="url(#clipPath2415)">
        <g
           id="g2417"
           transform="translate(748.8799,736.5552)">
          <path
             d="m 0,0 c 4.261,3.454 9.687,5.523 15.597,5.523 0.922,0 1.83,-0.055 2.726,-0.152 2.824,1.369 5.997,2.133 9.348,2.133 7.401,0 13.931,-3.744 17.795,-9.44 2.446,0.975 5.112,1.507 7.904,1.507 9.482,0 17.526,-6.165 20.341,-14.709 3.04,1.175 6.349,1.821 9.806,1.821 15.057,0 27.26,-12.201 27.267,-27.255 36.318,-8.134 63.46,-40.566 63.46,-79.337 0,-44.903 -36.402,-81.305 -81.306,-81.305 -33.597,0 -62.433,20.377 -74.824,49.445 -7.233,1.349 -13.689,4.906 -18.646,9.941 -8.709,-9.676 -21.332,-15.76 -35.379,-15.76 -12.259,0 -23.434,4.634 -31.87,12.249 0.054,-1.017 0.084,-2.043 0.084,-3.074 0,-31.076 -25.193,-56.271 -56.269,-56.271 -31.076,0 -56.272,25.195 -56.272,56.271 0,28.901 21.797,52.712 49.845,55.901 -2.733,7.288 -4.231,15.18 -4.231,23.42 0,21.561 10.235,40.731 26.112,52.918 -0.855,2.276 -1.323,4.742 -1.323,7.318 0,11.5 9.321,20.821 20.821,20.821 9.258,0 17.101,-6.039 19.809,-14.392 0.423,0.01 0.843,0.016 1.262,0.016 7.957,0 15.586,-1.394 22.662,-3.951 5.093,8.596 14.463,14.363 25.182,14.363 C -12.313,8.001 -5.242,4.958 0,0"
             style="fill:#ffffff;fill-opacity:1;fill-rule:evenodd;stroke:none"
             id="path2419" />
        </g>
        <g
           id="g2421"
           transform="translate(5.1836,6.0732)">
          <path
             d="M 0,0 V 596.691 C 243.601,821.245 496.839,701.846 669.275,524.888 815.328,375 1010.291,189.376 1193.382,390.451 V 0 Z"
             style="fill:#e0f7ff;fill-opacity:1;fill-rule:evenodd;stroke:none"
             id="path2423" />
        </g>
        <g
           id="g2425"
           transform="translate(1198.5654,6.0732)">
          <path
             d="M 0,0 V 434.077 C -548.866,573.894 -599.264,86.044 -1193.382,336.907 V 0 Z"
             style="fill:#70c4e0;fill-opacity:1;fill-rule:evenodd;stroke:none"
             id="path2427" />
        </g>
        <g
           id="g2429"
           transform="translate(1182.8984,427.543)">
          <path
             d="m 0,0 c -147.402,17.826 -274.096,-16.129 -397.613,-58.009 130.05,25.344 261.091,56.133 376.294,0.497 C -14.215,-38.342 -7.107,-19.17 0,0"
             style="fill:#85d9f5;fill-opacity:1;fill-rule:evenodd;stroke:none"
             id="path2431" />
        </g>
        <g
           id="g2433"
           transform="translate(5.1836,6.0732)">
          <path
             d="m 0,0 v 477.705 c 372.011,529.487 946.302,-376.788 1193.382,0 V 0 Z"
             style="fill:#2da3ca;fill-opacity:1;fill-rule:evenodd;stroke:none"
             id="path2435" />
        </g>
        <g
           id="g2437"
           transform="translate(5.1836,6.0732)">
          <path
             d="M 0,0 V 390.448 C 391.842,804.916 966.136,133.64 1193.382,458.868 V 0 Z"
             style="fill:#40b0d6;fill-opacity:1;fill-rule:evenodd;stroke:none"
             id="path2439" />
        </g>
        <g
           id="g2441"
           transform="translate(5.1836,6.0732)">
          <path
             d="m 0,0 v 299.227 c 455.302,271.681 870.944,-151.704 1193.382,37.68 V 0 Z"
             style="fill:#70c4e0;fill-opacity:1;fill-rule:evenodd;stroke:none"
             id="path2443" />
        </g>
        <g
           id="g2445"
           transform="translate(5.1836,109.7178)">
          <path
             d="m 0,0 v 102.376 c 438.447,187.4 1033.56,-268.708 1193.382,3.971 V 22.662 C 870.944,-91.253 455.302,163.415 0,0"
             style="fill:#f0fbff;fill-opacity:1;fill-rule:evenodd;stroke:none"
             id="path2447" />
        </g>
        <g
           id="g2449"
           transform="translate(5.1836,212.0937)">
          <path
             d="M 0,0 V 128.637 C 448.931,530.811 753.944,-79.382 1193.382,3.971 V -35.188 C 764.618,-105.123 401.59,405.056 0,0"
             style="fill:#85d9f5;fill-opacity:1;fill-rule:evenodd;stroke:none"
             id="path2451" />
        </g>
        <g
           id="g2453"
           transform="translate(409.7397,341.9727)">
          <path
             d="m 0,0 c -8.214,0 -14.874,-6.655 -14.874,-14.873 0,-8.214 6.659,-14.873 14.874,-14.873 8.214,0 14.873,6.659 14.873,14.873 C 14.873,-6.655 8.214,0 0,0 m 30.24,-47.098 c -3.286,0 -5.945,-2.663 -5.945,-5.949 0,-3.285 2.659,-5.948 5.945,-5.948 3.286,0 5.952,2.663 5.952,5.948 0,3.286 -2.666,5.949 -5.952,5.949 m 22.065,24.295 c -4.245,0 -7.685,-3.441 -7.685,-7.685 0,-4.244 3.44,-7.686 7.685,-7.686 4.244,0 7.681,3.442 7.681,7.686 0,4.244 -3.437,7.685 -7.681,7.685 m 28.507,-11.901 c -3.286,0 -5.952,-2.662 -5.952,-5.948 0,-3.286 2.666,-5.949 5.952,-5.949 3.285,0 5.948,2.663 5.948,5.949 0,3.286 -2.663,5.948 -5.948,5.948 M 117,-68.911 c -3.285,0 -5.945,-2.662 -5.945,-5.948 0,-3.287 2.66,-5.95 5.945,-5.95 3.286,0 5.953,2.663 5.953,5.95 0,3.286 -2.667,5.948 -5.953,5.948 m 28.262,28.259 c -3.834,0 -6.939,-3.109 -6.939,-6.94 0,-3.835 3.105,-6.939 6.939,-6.939 3.835,0 6.94,3.104 6.94,6.939 0,3.831 -3.105,6.94 -6.94,6.94 m 25.034,-37.183 c -5.884,0 -10.658,-4.77 -10.658,-10.658 0,-5.888 4.774,-10.658 10.658,-10.658 5.888,0 10.662,4.77 10.662,10.658 0,5.888 -4.774,10.658 -10.662,10.658 M 102.128,-0.99 c -5.201,0 -9.419,-4.216 -9.419,-9.419 0,-5.203 4.218,-9.421 9.419,-9.421 5.203,0 9.421,4.218 9.421,9.421 0,5.203 -4.218,9.419 -9.421,9.419 m 11.406,-30.24 c -4.932,0 -8.928,-3.997 -8.928,-8.925 0,-4.929 3.996,-8.925 8.928,-8.925 4.925,0 8.922,3.996 8.922,8.925 0,4.928 -3.997,8.925 -8.922,8.925 m -248.636,-14.628 c 0.456,0 0.907,-0.01 1.356,-0.03 -0.716,2.224 -1.104,4.597 -1.104,7.056 0,12.685 10.284,22.969 22.968,22.969 1.827,0 3.609,-0.217 5.313,-0.62 0.452,8.359 7.372,14.999 15.842,14.999 8.763,0 15.864,-7.105 15.864,-15.868 4.38,-0.064 8.321,-1.926 11.122,-4.88 1.902,0.594 3.922,0.917 6.017,0.917 11.106,0 20.112,-9.005 20.112,-20.112 0,-2.992 -0.653,-5.829 -1.821,-8.379 1.607,-1.191 3.024,-2.625 4.203,-4.241 1.226,0.167 2.475,0.258 3.744,0.258 11.661,0 21.609,-7.32 25.508,-17.613 2.334,1.123 4.948,1.749 7.711,1.749 8.508,0 15.625,-5.955 17.414,-13.924 3.169,4.306 8.272,7.103 14.03,7.103 9.619,0 17.417,-7.797 17.417,-17.413 0,-0.393 -0.016,-0.781 -0.042,-1.168 0.629,-0.297 1.223,-0.646 1.788,-1.043 0.685,11.982 10.616,21.487 22.765,21.487 12.598,0 22.807,-10.212 22.807,-22.807 v -0.022 c 7.024,-0.317 13.175,-3.948 16.939,-9.367 2.356,1.992 5.397,3.192 8.721,3.192 6.959,0 12.688,-5.264 13.428,-12.027 1.274,0.404 2.633,0.623 4.047,0.623 3.822,0 7.268,-1.6 9.709,-4.172 2.669,4.292 7.423,7.145 12.846,7.145 7.675,0 14.015,-5.72 14.989,-13.13 2.066,1.256 4.487,1.979 7.076,1.979 1.471,0 2.885,-0.236 4.215,-0.665 0.11,5.312 4.451,9.586 9.789,9.586 5.41,0 9.793,-4.383 9.793,-9.789 0,-1.811 -0.494,-3.506 -1.345,-4.958 2.904,-1.959 4.815,-5.281 4.815,-9.047 0,-6.027 -4.884,-10.907 -10.91,-10.907 -2.582,0 -4.954,0.897 -6.823,2.402 -2.459,-2.408 -5.823,-3.89 -9.534,-3.89 -6.605,0 -12.114,4.696 -13.366,10.932 -2.46,-1.733 -5.459,-2.753 -8.699,-2.753 -4.829,0 -9.128,2.263 -11.897,5.787 -2.444,-3.215 -6.307,-5.29 -10.658,-5.29 -6.172,0 -11.361,4.174 -12.914,9.852 -1.237,-6.046 -6.581,-10.597 -12.992,-10.597 -3.476,0 -6.639,1.339 -9.005,3.527 -2.799,-1.306 -5.92,-2.04 -9.215,-2.04 -11.713,0 -21.274,9.235 -21.79,20.822 h -0.026 c -7.63,0 -14.382,3.75 -18.523,9.506 -1.831,-4.403 -6.175,-7.498 -11.236,-7.498 -4.855,0 -9.048,2.844 -11,6.955 -0.388,-0.022 -0.775,-0.038 -1.169,-0.038 -2.104,0 -4.118,0.374 -5.984,1.059 -2.624,-4.487 -7.495,-7.505 -13.065,-7.505 -7.482,0 -13.692,5.435 -14.906,12.572 -4.202,0.591 -7.934,2.644 -10.664,5.632 -4.981,-5.399 -12.117,-8.782 -20.044,-8.782 -5.952,0 -11.459,1.907 -15.945,5.148 -3.273,-4.899 -8.85,-8.124 -15.183,-8.124 -4.584,0 -8.77,1.688 -11.975,4.477 -4.422,-11.878 -15.861,-20.341 -29.278,-20.341 -13.98,0 -25.812,9.185 -29.798,21.848 -0.475,-0.023 -0.953,-0.036 -1.437,-0.036 -7.068,0 -13.562,2.469 -18.665,6.588 -3.063,-3.415 -7.508,-5.564 -12.456,-5.564 -9.231,0 -16.719,7.484 -16.719,16.716 0,9.234 7.488,16.719 16.719,16.719 0.587,0 1.162,-0.032 1.733,-0.09 2.221,14.234 14.534,25.125 29.388,25.125"
             style="fill:#f0fbff;fill-opacity:1;fill-rule:evenodd;stroke:none"
             id="path2455" />
        </g>
        <g
           id="g2457"
           transform="translate(385.6646,830.8169)">
          <path
             d="m 0,0 c 27.112,0 49.093,-21.98 49.093,-49.093 0,-16.236 -7.882,-30.631 -20.031,-39.565 2.337,-3.59 3.692,-7.876 3.692,-12.479 0,-2.204 -0.31,-4.331 -0.89,-6.348 2.676,1.249 5.661,1.946 8.808,1.946 0.423,0 0.846,-0.013 1.262,-0.036 2.485,9.128 10.829,15.839 20.741,15.839 2.059,0 4.048,-0.291 5.932,-0.83 -0.103,0.868 -0.157,1.756 -0.157,2.653 0,12.137 9.838,21.975 21.977,21.975 3.983,0 7.724,-1.062 10.948,-2.919 0.381,0.685 0.827,1.337 1.317,1.94 -0.345,1.356 -0.529,2.773 -0.529,4.235 0,9.289 7.417,16.842 16.655,17.065 2.704,5.3 8.217,8.928 14.576,8.928 9.038,0 16.364,-7.324 16.364,-16.358 0,-1.753 -0.277,-3.441 -0.787,-5.022 5.558,-3.741 9.215,-10.087 9.215,-17.288 0,-1.672 -0.197,-3.295 -0.571,-4.854 0.564,-0.168 1.123,-0.349 1.672,-0.546 5.035,2.808 10.825,4.406 16.997,4.406 1.135,0 2.259,-0.055 3.363,-0.161 3.886,7.462 11.69,12.558 20.682,12.558 5.775,0 11.059,-2.104 15.132,-5.584 5.952,5.029 13.647,8.06 22.052,8.06 18.892,0 34.207,-15.316 34.207,-34.207 0,-12.498 -6.704,-23.43 -16.713,-29.398 16.929,-11.061 28.117,-30.179 28.117,-51.908 0,-34.226 -27.746,-61.971 -61.972,-61.971 -27.413,0 -50.669,17.8 -58.838,42.476 -6.462,-3.986 -14.073,-6.287 -22.219,-6.287 -23.414,0 -42.393,18.979 -42.393,42.389 0,0.781 0.026,1.553 0.065,2.321 -4.142,1.591 -7.799,4.167 -10.674,7.44 -1.969,-6.372 -7.905,-11 -14.925,-11 -7.724,0 -14.134,5.606 -15.393,12.968 -1.788,1.34 -3.279,3.06 -4.345,5.039 -3.347,-2.289 -7.397,-3.632 -11.758,-3.632 -9.144,0 -16.913,5.888 -19.724,14.077 -2.744,-1.992 -6.114,-3.167 -9.761,-3.167 -6.378,0 -11.916,3.596 -14.699,8.87 -4.635,-3.392 -10.348,-5.4 -16.532,-5.4 -8.786,0 -16.62,4.041 -21.755,10.368 -7.269,-7.347 -17.352,-11.901 -28.5,-11.901 -9.677,0 -18.553,3.431 -25.48,9.137 -3.408,-3.179 -7.979,-5.125 -13.011,-5.125 -8.395,0 -15.528,5.422 -18.081,12.956 -2.334,-0.998 -4.903,-1.553 -7.601,-1.553 -5.529,0 -10.516,2.321 -14.038,6.046 -1.404,-0.388 -2.879,-0.594 -4.406,-0.594 -3.114,0 -6.029,0.859 -8.521,2.353 -1.613,-8.124 -8.782,-14.25 -17.384,-14.25 -1.597,0 -3.15,0.213 -4.622,0.613 -2.433,-3.373 -6.394,-5.571 -10.868,-5.571 -2.669,0 -5.154,0.781 -7.239,2.127 -1.375,-4.532 -5.588,-7.83 -10.568,-7.83 -1.013,0 -1.994,0.138 -2.93,0.393 -2.592,-5.225 -7.986,-8.818 -14.215,-8.818 -0.704,0 -1.401,0.045 -2.079,0.136 1.317,-2.085 2.079,-4.555 2.079,-7.205 0,-7.458 -6.049,-13.507 -13.511,-13.507 -6.098,0 -11.252,4.038 -12.931,9.586 -1.61,-0.743 -3.401,-1.158 -5.29,-1.158 -6.981,0 -12.643,5.661 -12.643,12.642 0,6.981 5.662,12.643 12.643,12.643 0.249,0 0.5,-0.01 0.746,-0.023 v 0.023 c 0,6.843 5.548,12.394 12.394,12.394 1.859,0 3.622,-0.413 5.209,-1.145 2.815,4.415 7.757,7.342 13.383,7.342 0.258,0 0.516,-0.006 0.774,-0.019 -0.342,1.314 -0.529,2.689 -0.529,4.109 0,8.967 7.272,16.235 16.239,16.235 0.984,0 1.946,-0.087 2.879,-0.255 -0.178,0.885 -0.275,1.798 -0.275,2.734 0,7.53 6.104,13.634 13.634,13.634 0.581,0 1.159,-0.036 1.724,-0.107 -1.582,3.212 -2.466,6.824 -2.466,10.642 0,13.35 10.819,24.169 24.169,24.169 6.803,0 12.952,-2.814 17.345,-7.343 -0.238,1.32 -0.368,2.682 -0.368,4.07 0,12.488 10.122,22.61 22.61,22.61 9.535,0 17.692,-5.906 21.016,-14.256 3.253,2.414 7.288,3.844 11.655,3.844 1.03,0 2.043,-0.081 3.027,-0.233 1.605,7.133 5.536,13.386 10.958,17.917 -1.49,2.692 -2.336,5.79 -2.336,9.086 0,10.406 8.437,18.84 18.84,18.84 8.46,0 15.616,-5.578 17.994,-13.253 1.059,0.239 2.156,0.365 3.283,0.365 3.715,0 7.111,-1.369 9.712,-3.625 -0.162,1.017 -0.252,2.063 -0.252,3.128 0,10.681 8.657,19.334 19.334,19.334 10.519,0 19.076,-8.396 19.331,-18.85 C -0.646,-0.006 -0.323,0 0,0 m -331.636,-167.572 c 2.924,0 5.49,-1.533 6.936,-3.841 0.136,6.797 5.687,12.269 12.517,12.269 5.726,0 10.555,-3.845 12.046,-9.093 0.552,0.11 1.123,0.168 1.711,0.168 4.793,0 8.676,-3.883 8.676,-8.676 0,-4.79 -3.883,-8.673 -8.676,-8.673 -2.773,0 -5.242,1.301 -6.83,3.328 -0.891,-0.591 -1.853,-1.072 -2.879,-1.42 0.187,-0.898 0.29,-1.824 0.29,-2.776 0,-7.327 -5.939,-13.263 -13.262,-13.263 -7.324,0 -13.263,5.936 -13.263,13.263 0,0.929 0.097,1.839 0.284,2.717 -3.325,1.043 -5.732,4.145 -5.732,7.812 0,4.521 3.66,8.185 8.182,8.185"
             style="fill:#e0f7ff;fill-opacity:1;fill-rule:evenodd;stroke:none"
             id="path2459" />
        </g>
        <g
           id="g2461"
           transform="translate(271.1782,670.6943)">
          <path
             d="m 0,0 c 3.757,0 7.178,-1.443 9.741,-3.806 0.929,0.22 1.905,0.336 2.902,0.336 6.981,0 12.643,-5.661 12.643,-12.643 0,-6.981 -5.662,-12.642 -12.643,-12.642 -2.215,0 -4.296,0.571 -6.104,1.568 -1.962,-1 -4.183,-1.568 -6.539,-1.568 -0.949,0 -1.872,0.093 -2.77,0.267 -2.34,-7.895 -9.647,-13.653 -18.301,-13.653 -1.607,0 -3.166,0.2 -4.657,0.572 -3.221,-6.785 -10.138,-11.478 -18.149,-11.478 -11.091,0 -20.077,8.989 -20.077,20.079 0,11.087 8.986,20.076 20.077,20.076 2.124,0 4.169,-0.329 6.093,-0.939 3.251,5.881 9.516,9.864 16.713,9.864 3.325,0 6.446,-0.849 9.167,-2.343 C -9.315,-2.501 -4.952,0 0,0 m 246.215,-73.104 c -0.146,-0.171 -0.288,-0.345 -0.426,-0.523 0.054,0.235 0.103,0.472 0.148,0.707 z m 10.167,33.849 c -7.766,0 -14.412,-4.803 -17.133,-11.6 -4.444,4.463 -10.593,7.226 -17.391,7.226 -13.556,0 -24.543,-10.987 -24.543,-24.54 0,-13.553 10.987,-24.54 24.543,-24.54 8.231,0 15.513,4.051 19.964,10.264 -0.217,-1.191 -0.333,-2.421 -0.333,-3.676 0,-11.213 9.09,-20.303 20.302,-20.303 6.114,0 11.594,2.702 15.319,6.976 2.853,-8.198 10.648,-14.083 19.818,-14.083 11.588,0 20.984,9.392 20.984,20.98 0,11.587 -9.396,20.983 -20.984,20.983 -6.462,0 -12.239,-2.92 -16.087,-7.514 -1.71,4.626 -5.057,8.457 -9.34,10.794 2.101,2.995 3.334,6.643 3.334,10.58 0,10.19 -8.26,18.453 -18.453,18.453 M 39.772,5.471 c 1.988,0 3.595,-1.608 3.595,-3.592 0,-1.989 -1.607,-3.596 -3.595,-3.596 -1.982,0 -3.593,1.607 -3.593,3.596 0,1.984 1.611,3.592 3.593,3.592 m 16.486,0.248 c 2.738,0 4.958,-2.22 4.958,-4.957 0,-2.74 -2.22,-4.958 -4.958,-4.958 -2.736,0 -4.957,2.218 -4.957,4.958 0,2.737 2.221,4.957 4.957,4.957 m 18.963,10.907 c 2.259,0 4.09,-1.83 4.09,-4.09 0,-2.259 -1.831,-4.089 -4.09,-4.089 -2.259,0 -4.089,1.83 -4.089,4.089 0,2.26 1.83,4.09 4.089,4.09 m 81.554,-19.089 c -3.079,0 -5.577,-2.495 -5.577,-5.577 0,-3.08 2.498,-5.578 5.577,-5.578 3.083,0 5.578,2.498 5.578,5.578 0,3.082 -2.495,5.577 -5.578,5.577 m 8.057,-17.103 c 2.737,0 4.958,-2.218 4.958,-4.958 0,-2.737 -2.221,-4.954 -4.958,-4.954 -2.737,0 -4.958,2.217 -4.958,4.954 0,2.74 2.221,4.958 4.958,4.958 m 126.796,-32.471 c 1.989,0 3.596,-1.61 3.596,-3.596 0,-1.985 -1.607,-3.592 -3.596,-3.592 -1.981,0 -3.592,1.607 -3.592,3.592 0,1.986 1.611,3.596 3.592,3.596 m 17.611,0.994 c 3.834,0 6.946,-3.108 6.946,-6.942 0,-3.832 -3.112,-6.94 -6.946,-6.94 -3.832,0 -6.94,3.108 -6.94,6.94 0,3.834 3.108,6.942 6.94,6.942 m 17.097,-18.595 c 1.849,0 3.347,-1.497 3.347,-3.346 0,-1.847 -1.498,-3.348 -3.347,-3.348 -1.85,0 -3.347,1.501 -3.347,3.348 0,1.849 1.497,3.346 3.347,3.346 m -42.887,40.902 c 1.575,0 2.85,-1.275 2.85,-2.85 0,-1.575 -1.275,-2.85 -2.85,-2.85 -1.575,0 -2.85,1.275 -2.85,2.85 0,1.575 1.275,2.85 2.85,2.85 m -41.892,13.634 c 4.858,0 8.799,-3.941 8.799,-8.799 0,-4.861 -3.941,-8.799 -8.799,-8.799 -4.861,0 -8.802,3.938 -8.802,8.799 0,4.858 3.941,8.799 8.802,8.799 M 85.77,-9.418 c 4.266,0 8.114,-1.798 10.825,-4.677 3.228,5.748 9.38,9.634 16.439,9.634 8.192,0 15.157,-5.228 17.755,-12.526 1.533,0.406 3.141,0.626 4.806,0.626 10.267,0 18.591,-8.324 18.591,-18.592 0,-10.267 -8.324,-18.591 -18.591,-18.591 -2.014,0 -3.947,0.319 -5.761,0.91 -3.076,-3.305 -7.466,-5.371 -12.336,-5.371 -9.309,0 -16.855,7.547 -16.855,16.859 0,1.152 0.116,2.281 0.339,3.369 -1.414,1.178 -2.654,2.563 -3.674,4.102 -2.727,-3.35 -6.881,-5.49 -11.539,-5.49 -8.214,0 -14.873,6.659 -14.873,14.873 0,8.215 6.659,14.874 14.874,14.874"
             style="fill:#2da3ca;fill-opacity:1;fill-rule:evenodd;stroke:none"
             id="path2463" />
        </g>
        <g
           id="g2465"
           transform="translate(5.1836,81.9854)">
          <path
             d="m 0,0 v -34.817 c 438.447,-7.01 1033.56,225.08 1193.382,153.029 v 28.455 C 870.945,143.694 455.302,3.325 0,0"
             style="fill:#b2ecff;fill-opacity:1;fill-rule:evenodd;stroke:none"
             id="path2467" />
        </g>
        <g
           id="g2469"
           transform="translate(749.9609,550.4785)">
          <path
             d="m 0,0 c 3.079,0 5.578,-2.498 5.578,-5.577 0,-3.079 -2.499,-5.577 -5.578,-5.577 -3.082,0 -5.577,2.498 -5.577,5.577 C -5.577,-2.498 -3.082,0 0,0 m 30.118,-26.773 c 3.15,0 5.7,-2.55 5.7,-5.701 0,-3.15 -2.55,-5.7 -5.7,-5.7 -3.15,0 -5.7,2.55 -5.7,5.7 0,3.151 2.55,5.701 5.7,5.701 m 31.111,2.478 c 3.08,0 5.578,-2.494 5.578,-5.577 0,-3.079 -2.498,-5.577 -5.578,-5.577 -3.081,0 -5.577,2.498 -5.577,5.577 0,3.083 2.496,5.577 5.577,5.577 m 18.837,-23.301 c 1.85,0 3.347,-1.497 3.347,-3.346 0,-1.847 -1.497,-3.347 -3.347,-3.347 -1.846,0 -3.343,1.5 -3.343,3.347 0,1.849 1.497,3.346 3.343,3.346 m 32.845,23.798 c 3.696,0 6.695,-2.995 6.695,-6.693 0,-3.697 -2.999,-6.692 -6.695,-6.692 -3.695,0 -6.69,2.995 -6.69,6.692 0,3.698 2.995,6.693 6.69,6.693 m -21.563,-3.47 c 3.285,0 5.948,-2.662 5.948,-5.948 0,-3.286 -2.663,-5.952 -5.948,-5.952 -3.286,0 -5.95,2.666 -5.95,5.952 0,3.286 2.664,5.948 5.95,5.948 M 32.597,0.249 c 4.518,0 8.178,-3.663 8.178,-8.183 0,-4.515 -3.66,-8.178 -8.178,-8.178 -4.519,0 -8.179,3.663 -8.179,8.178 0,4.52 3.66,8.183 8.179,8.183 M 64.08,-45.116 c 2.462,0 4.46,-1.998 4.46,-4.461 0,-2.463 -1.998,-4.461 -4.46,-4.461 -2.467,0 -4.465,1.998 -4.465,4.461 0,2.463 1.998,4.461 4.465,4.461 m 70.151,210.952 c 4.654,0 8.427,-3.773 8.427,-8.427 0,-4.655 -3.773,-8.428 -8.427,-8.428 -4.655,0 -8.428,3.773 -8.428,8.428 0,4.654 3.773,8.427 8.428,8.427 m 28.009,-31.728 c 2.876,0 5.206,-2.334 5.206,-5.207 0,-2.875 -2.33,-5.206 -5.206,-5.206 -2.873,0 -5.203,2.331 -5.203,5.206 0,2.873 2.33,5.207 5.203,5.207 m 26.526,-18.346 c 5.203,0 9.418,-4.216 9.418,-9.419 0,-5.203 -4.215,-9.418 -9.418,-9.418 -5.204,0 -9.422,4.215 -9.422,9.418 0,5.203 4.218,9.419 9.422,9.419 M 201.902,69.16 c 1.779,0 3.225,-1.443 3.225,-3.221 0,-1.782 -1.446,-3.221 -3.225,-3.221 -1.778,0 -3.221,1.439 -3.221,3.221 0,1.778 1.443,3.221 3.221,3.221 M 187.526,25.531 c 4.515,0 8.179,-3.66 8.179,-8.178 0,-4.519 -3.664,-8.179 -8.179,-8.179 -4.519,0 -8.182,3.66 -8.182,8.179 0,4.518 3.663,8.178 8.182,8.178 m 18.591,18.84 c 1.644,0 2.977,-1.329 2.977,-2.975 0,-1.643 -1.333,-2.973 -2.977,-2.973 -1.642,0 -2.972,1.33 -2.972,2.973 0,1.646 1.33,2.975 2.972,2.975 M 161.992,8.18 c 2.192,0 3.967,-1.776 3.967,-3.964 0,-2.192 -1.775,-3.967 -3.967,-3.967 -2.188,0 -3.964,1.775 -3.964,3.967 0,2.188 1.776,3.964 3.964,3.964 m -8.18,-24.789 c 1.234,0 2.231,-0.997 2.231,-2.231 0,-1.232 -0.997,-2.23 -2.231,-2.23 -1.232,0 -2.23,0.998 -2.23,2.23 0,1.234 0.998,2.231 2.23,2.231 m -16.606,-18.84 c 1.369,0 2.48,-1.111 2.48,-2.479 0,-1.369 -1.111,-2.479 -2.48,-2.479 -1.372,0 -2.481,1.11 -2.481,2.479 0,1.368 1.109,2.479 2.481,2.479 M 72.01,206.489 c 4.519,0 8.18,-3.66 8.18,-8.179 0,-4.519 -3.661,-8.179 -8.18,-8.179 -4.519,0 -8.179,3.66 -8.179,8.179 0,4.519 3.66,8.179 8.179,8.179 m 24.047,0.99 c 3.285,0 5.948,-2.662 5.948,-5.948 0,-3.286 -2.663,-5.949 -5.948,-5.949 -3.286,0 -5.953,2.663 -5.953,5.949 0,3.286 2.667,5.948 5.953,5.948 m 10.409,-17.351 c 2.466,0 4.464,-1.995 4.464,-4.461 0,-2.463 -1.998,-4.461 -4.464,-4.461 -2.463,0 -4.461,1.998 -4.461,4.461 0,2.466 1.998,4.461 4.461,4.461 m -58.747,28.755 c 4.244,0 7.681,-3.437 7.681,-7.682 0,-4.244 -3.437,-7.685 -7.681,-7.685 -4.245,0 -7.686,3.441 -7.686,7.685 0,4.245 3.441,7.682 7.686,7.682 m 47.098,10.413 c 2.328,0 4.212,-1.888 4.212,-4.213 0,-2.33 -1.884,-4.215 -4.212,-4.215 -2.327,0 -4.215,1.885 -4.215,4.215 0,2.325 1.888,4.213 4.215,4.213 m 42.634,-19.334 c 4.794,0 8.677,-3.886 8.677,-8.676 0,-4.793 -3.883,-8.676 -8.677,-8.676 -4.789,0 -8.676,3.883 -8.676,8.676 0,4.79 3.887,8.676 8.676,8.676 M -22.064,0.494 c 2.124,0 3.844,-1.717 3.844,-3.841 0,-2.121 -1.72,-3.84 -3.844,-3.84 -2.121,0 -3.841,1.719 -3.841,3.84 0,2.124 1.72,3.841 3.841,3.841"
             style="fill:#ffffff;fill-opacity:1;fill-rule:evenodd;stroke:none"
             id="path2471" />
        </g>
        <g
           id="g2473"
           transform="translate(593.1729,833.3184)">
          <path
             d="m 0,0 c 6.571,0 11.897,-5.329 11.897,-11.898 0,-6.571 -5.326,-11.9 -11.897,-11.9 -6.572,0 -11.9,5.329 -11.9,11.9 C -11.9,-5.329 -6.572,0 0,0 m -42.887,16.361 c 3.148,0 5.704,-2.553 5.704,-5.7 0,-3.15 -2.556,-5.703 -5.704,-5.703 -3.146,0 -5.7,2.553 -5.7,5.703 0,3.147 2.554,5.7 5.7,5.7 M -64.206,0.991 c 5.065,0 9.174,-4.106 9.174,-9.17 0,-5.068 -4.109,-9.173 -9.174,-9.173 -5.064,0 -9.173,4.105 -9.173,9.173 0,5.064 4.109,9.17 9.173,9.17 m -66.187,19.831 c 4.109,0 7.437,-3.328 7.437,-7.437 0,-4.105 -3.328,-7.436 -7.437,-7.436 -4.105,0 -7.433,3.331 -7.433,7.436 0,4.109 3.328,7.437 7.433,7.437 m -42.882,-0.991 c 6.984,0 12.642,-5.662 12.642,-12.643 0,-6.982 -5.658,-12.643 -12.642,-12.643 -6.982,0 -12.64,5.661 -12.64,12.643 0,6.981 5.658,12.643 12.64,12.643 m 19.088,-38.174 c 2.188,0 3.963,-1.775 3.963,-3.967 0,-2.192 -1.775,-3.966 -3.963,-3.966 -2.192,0 -3.967,1.774 -3.967,3.966 0,2.192 1.775,3.967 3.967,3.967 m -0.994,70.399 c 4.105,0 7.436,-3.331 7.436,-7.436 0,-4.106 -3.331,-7.437 -7.436,-7.437 -4.106,0 -7.437,3.331 -7.437,7.437 0,4.105 3.331,7.436 7.437,7.436 m 26.525,13.385 c 6.162,0 11.155,-4.993 11.155,-11.154 0,-6.162 -4.993,-11.155 -11.155,-11.155 -6.159,0 -11.155,4.993 -11.155,11.155 0,6.161 4.996,11.154 11.155,11.154 M -247.145,32.722 c 2.328,0 4.216,-1.888 4.216,-4.215 0,-2.327 -1.888,-4.215 -4.216,-4.215 -2.33,0 -4.215,1.888 -4.215,4.215 0,2.327 1.885,4.215 4.215,4.215 m 40.902,3.47 c 5.748,0 10.409,-4.661 10.409,-10.412 0,-5.749 -4.661,-10.41 -10.409,-10.41 -5.752,0 -10.413,4.661 -10.413,10.41 0,5.751 4.661,10.412 10.413,10.412 M -307.383,25.78 c 2.462,0 4.461,-1.998 4.461,-4.461 0,-2.463 -1.999,-4.461 -4.461,-4.461 -2.463,0 -4.464,1.998 -4.464,4.461 0,2.463 2.001,4.461 4.464,4.461 m -7.188,-31.729 c 2.327,0 4.215,-1.888 4.215,-4.215 0,-2.327 -1.888,-4.212 -4.215,-4.212 -2.328,0 -4.216,1.885 -4.216,4.212 0,2.327 1.888,4.215 4.216,4.215 M -354.73,7.436 c 3.699,0 6.694,-2.995 6.694,-6.694 0,-3.695 -2.995,-6.691 -6.694,-6.691 -3.696,0 -6.691,2.996 -6.691,6.691 0,3.699 2.995,6.694 6.691,6.694 m -15.864,-29.248 c 2.327,0 4.215,-1.889 4.215,-4.216 0,-2.328 -1.888,-4.216 -4.215,-4.216 -2.327,0 -4.212,1.888 -4.212,4.216 0,2.327 1.885,4.216 4.212,4.216 m -34.207,-11.901 c 3.695,0 6.691,-2.995 6.691,-6.691 0,-3.699 -2.996,-6.695 -6.691,-6.695 -3.696,0 -6.691,2.996 -6.691,6.695 0,3.696 2.995,6.691 6.691,6.691 m -18.84,-19.831 c 2.327,0 4.215,-1.889 4.215,-4.212 0,-2.331 -1.888,-4.216 -4.215,-4.216 -2.327,0 -4.216,1.885 -4.216,4.216 0,2.323 1.889,4.212 4.216,4.212 m -30.738,-42.632 c 1.23,0 2.231,-1 2.231,-2.233 0,-1.23 -1.001,-2.231 -2.231,-2.231 -1.233,0 -2.23,1.001 -2.23,2.231 0,1.233 0.997,2.233 2.23,2.233 m -16.483,-18.595 c 1.161,0 2.104,-0.942 2.104,-2.104 0,-1.165 -0.943,-2.108 -2.104,-2.108 -1.166,0 -2.108,0.943 -2.108,2.108 0,1.162 0.942,2.104 2.108,2.104 m -25.661,-2.478 c 2.876,0 5.21,-2.331 5.21,-5.203 0,-2.876 -2.334,-5.207 -5.21,-5.207 -2.873,0 -5.203,2.331 -5.203,5.207 0,2.872 2.33,5.203 5.203,5.203 m 14.38,34.704 c 2.462,0 4.464,-1.995 4.464,-4.461 0,-2.462 -2.002,-4.46 -4.464,-4.46 -2.463,0 -4.461,1.998 -4.461,4.46 0,2.466 1.998,4.461 4.461,4.461 m 32.474,13.634 c 6.022,0 10.909,-4.881 10.909,-10.906 0,-6.023 -4.887,-10.907 -10.909,-10.907 -6.023,0 -10.91,4.884 -10.91,10.907 0,6.025 4.887,10.906 10.91,10.906 m 418.683,51.559 c 8.347,0 15.119,-6.772 15.119,-15.122 0,-8.35 -6.772,-15.118 -15.119,-15.118 -8.353,0 -15.122,6.768 -15.122,15.118 0,8.35 6.769,15.122 15.122,15.122"
             style="fill:#e0f7ff;fill-opacity:1;fill-rule:evenodd;stroke:none"
             id="path2475" />
        </g>
        <g
           id="g2477"
           transform="translate(181.3384,893.8052)">
          <path
             d="m 0,0 c 73.12,0 132.762,59.635 132.762,132.755 0,73.123 -59.642,132.76 -132.762,132.76 -73.12,0 -132.758,-59.637 -132.758,-132.76 C -132.758,59.635 -73.12,0 0,0"
             style="fill:#fffded;fill-opacity:1;fill-rule:evenodd;stroke:none"
             id="path2479" />
        </g>
        <g
           id="g2481"
           transform="translate(5.1841,974.4204)">
          <path
             d="M 0,0 1193.381,-24.159 0,-55.529 Z"
             style="fill:#deefff;fill-opacity:1;fill-rule:evenodd;stroke:none"
             id="path2483" />
        </g>
        <g
           id="g2485"
           transform="translate(5.1841,1073.2456)">
          <path
             d="M 0,0 451.915,-10.513 0,-24.163 Z"
             style="fill:#deefff;fill-opacity:1;fill-rule:evenodd;stroke:none"
             id="path2487" />
        </g>
        <g
           id="g2489"
           transform="translate(1198.5654,1122.2842)">
          <path
             d="M 0,0 -967.527,10.511 0,24.161 Z"
             style="fill:#deefff;fill-opacity:1;fill-rule:evenodd;stroke:none"
             id="path2491" />
        </g>
        <g
           id="g2493"
           transform="translate(259.2998,110.7764)">
          <path
             d="m 0,0 c 7.256,0 13.137,-5.881 13.137,-13.14 0,-7.255 -5.881,-13.136 -13.137,-13.136 -7.256,0 -13.137,5.881 -13.137,13.136 C -13.137,-5.881 -7.256,0 0,0 m 2.727,44.62 c -4.928,0 -8.924,-3.996 -8.924,-8.925 0,-4.928 3.996,-8.924 8.924,-8.924 4.929,0 8.925,3.996 8.925,8.924 0,4.929 -3.996,8.925 -8.925,8.925 m -52.304,-1.985 c 5.338,0 9.667,-4.328 9.667,-9.667 0,-5.339 -4.329,-9.667 -9.667,-9.667 -5.339,0 -9.667,4.328 -9.667,9.667 0,5.339 4.328,9.667 9.667,9.667 m -6.142,43.629 c 7.423,0 13.443,-6.017 13.443,-13.441 0,-7.424 -6.02,-13.439 -13.443,-13.439 -7.421,0 -13.441,6.015 -13.441,13.439 0,7.424 6.02,13.441 13.441,13.441 M -98.906,43.132 c 5.748,0 10.409,-4.66 10.409,-10.412 0,-5.749 -4.661,-10.41 -10.409,-10.41 -5.748,0 -10.409,4.661 -10.409,10.41 0,5.752 4.661,10.412 10.409,10.412 M -75.851,-11.9 c 8.076,0 14.622,-6.546 14.622,-14.624 0,-8.077 -6.546,-14.625 -14.622,-14.625 -8.079,0 -14.628,6.548 -14.628,14.625 0,8.078 6.549,14.624 14.628,14.624 m 35.447,20.328 c 3.835,0 6.94,-3.109 6.94,-6.94 0,-3.835 -3.105,-6.942 -6.94,-6.942 -3.835,0 -6.94,3.107 -6.94,6.942 0,3.831 3.105,6.94 6.94,6.94 m -87.503,-4.461 c 8.625,0 15.616,-6.994 15.616,-15.618 0,-8.625 -6.991,-15.617 -15.616,-15.617 -8.628,0 -15.619,6.992 -15.619,15.617 0,8.624 6.991,15.618 15.619,15.618 m -21.816,73.372 c 6.982,0 12.643,-5.658 12.643,-12.64 0,-6.981 -5.661,-12.642 -12.643,-12.642 -6.981,0 -12.643,5.661 -12.643,12.642 0,6.982 5.662,12.64 12.643,12.64 m 14.625,-42.141 c 5.203,0 9.418,-4.215 9.418,-9.418 0,-5.203 -4.215,-9.419 -9.418,-9.419 -5.203,0 -9.419,4.216 -9.419,9.419 0,5.203 4.216,9.418 9.419,9.418 m 27.019,38.671 c 4.244,0 7.685,-3.44 7.685,-7.681 0,-4.246 -3.441,-7.686 -7.685,-7.686 -4.245,0 -7.685,3.44 -7.685,7.686 0,4.241 3.44,7.681 7.685,7.681 m 31.815,-22.7 c 4.409,0 7.982,-3.573 7.982,-7.985 0,-4.41 -3.573,-7.983 -7.982,-7.983 -4.409,0 -7.985,3.573 -7.985,7.983 0,4.412 3.576,7.985 7.985,7.985 m -2.563,-41.75 c 1.779,0 3.221,-1.443 3.221,-3.222 0,-1.778 -1.442,-3.22 -3.221,-3.22 -1.781,0 -3.221,1.442 -3.221,3.22 0,1.779 1.44,3.222 3.221,3.222 m 61.475,24.788 c 6.436,0 11.652,-5.216 11.652,-11.648 0,-6.437 -5.216,-11.653 -11.652,-11.653 -6.436,0 -11.652,5.216 -11.652,11.653 0,6.432 5.216,11.648 11.652,11.648 M 33.962,16.855 c 5.203,0 9.418,-4.215 9.418,-9.418 0,-5.204 -4.215,-9.421 -9.418,-9.421 -5.203,0 -9.419,4.217 -9.419,9.421 0,5.203 4.216,9.418 9.419,9.418"
             style="fill:#b2ecff;fill-opacity:1;fill-rule:evenodd;stroke:none"
             id="path2495" />
        </g>
        <g
           id="g2497"
           transform="translate(1098.4063,425.5928)">
          <path
             d="m 0,0 c 3.551,0 6.446,2.898 6.446,6.446 0,3.55 -2.895,6.446 -6.446,6.446 -3.55,0 -6.445,-2.896 -6.445,-6.446 C -6.445,2.898 -3.55,0 0,0"
             style="fill:#e0f7ff;fill-opacity:1;fill-rule:evenodd;stroke:none"
             id="path2499" />
        </g>
        <g
           id="g2501"
           transform="translate(1116.0078,390.3945)">
          <path
             d="m 0,0 c 5.051,0 9.173,4.119 9.173,9.174 0,5.051 -4.122,9.17 -9.173,9.17 -5.052,0 -9.174,-4.119 -9.174,-9.17 C -9.174,4.119 -5.052,0 0,0"
             style="fill:#e0f7ff;fill-opacity:1;fill-rule:evenodd;stroke:none"
             id="path2503" />
        </g>
        <g
           id="g2505"
           transform="translate(1142.7813,355.6904)">
          <path
             d="m 0,0 c 3.957,0 7.187,3.232 7.187,7.189 0,3.959 -3.23,7.188 -7.187,7.188 -3.961,0 -7.191,-3.229 -7.191,-7.188 C -7.191,3.232 -3.961,0 0,0"
             style="fill:#e0f7ff;fill-opacity:1;fill-rule:evenodd;stroke:none"
             id="path2507" />
        </g>
        <g
           id="g2509"
           transform="translate(1083.04,352.7148)">
          <path
             d="m 0,0 c 4.37,0 7.934,3.566 7.934,7.934 0,4.37 -3.564,7.933 -7.934,7.933 -4.37,0 -7.934,-3.563 -7.934,-7.933 C -7.934,3.566 -4.37,0 0,0"
             style="fill:#e0f7ff;fill-opacity:1;fill-rule:evenodd;stroke:none"
             id="path2511" />
        </g>
        <g
           id="g2513"
           transform="translate(1110.0586,315.5352)">
          <path
             d="m 0,0 c 4.78,0 8.676,3.896 8.676,8.676 0,4.777 -3.896,8.676 -8.676,8.676 -4.777,0 -8.676,-3.899 -8.676,-8.676 C -8.676,3.896 -4.777,0 0,0"
             style="fill:#e0f7ff;fill-opacity:1;fill-rule:evenodd;stroke:none"
             id="path2515" />
        </g>
        <g
           id="g2517"
           transform="translate(1121.2139,358.667)">
          <path
             d="m 0,0 c 4.915,0 8.925,4.009 8.925,8.921 0,4.916 -4.01,8.925 -8.925,8.925 -4.916,0 -8.925,-4.009 -8.925,-8.925 C -8.925,4.009 -4.916,0 0,0"
             style="fill:#e0f7ff;fill-opacity:1;fill-rule:evenodd;stroke:none"
             id="path2519" />
        </g>
        <g
           id="g2521"
           transform="translate(1043.7041,389.7402)">
          <path
             d="m 0,0 c 6.187,0 11.235,5.048 11.235,11.235 0,6.188 -5.048,11.233 -11.235,11.233 -6.187,0 -11.235,-5.045 -11.235,-11.233 C -11.235,5.048 -6.187,0 0,0"
             style="fill:#e0f7ff;fill-opacity:1;fill-rule:evenodd;stroke:none"
             id="path2523" />
        </g>
        <g
           id="g2525"
           transform="translate(1072.876,405.7656)">
          <path
             d="m 0,0 c 11.332,0 20.573,9.24 20.573,20.573 0,11.332 -9.241,20.574 -20.573,20.574 -11.333,0 -20.573,-9.242 -20.573,-20.574 C -20.573,9.24 -11.333,0 0,0"
             style="fill:#e0f7ff;fill-opacity:1;fill-rule:evenodd;stroke:none"
             id="path2527" />
        </g>
        <g
           id="g2529"
           transform="translate(1015.1162,361.6396)">
          <path
             d="m 0,0 c 5.735,0 10.412,4.677 10.412,10.412 0,5.736 -4.677,10.409 -10.412,10.409 -5.732,0 -10.409,-4.673 -10.409,-10.409 C -10.409,4.677 -5.732,0 0,0"
             style="fill:#e0f7ff;fill-opacity:1;fill-rule:evenodd;stroke:none"
             id="path2531" />
        </g>
        <g
           id="g2533"
           transform="translate(1034.9473,337.8418)">
          <path
             d="M 0,0 C 3.005,0 5.455,2.449 5.455,5.455 5.455,8.46 3.005,10.909 0,10.909 -3.002,10.909 -5.452,8.46 -5.452,5.455 -5.452,2.449 -3.002,0 0,0"
             style="fill:#e0f7ff;fill-opacity:1;fill-rule:evenodd;stroke:none"
             id="path2535" />
        </g>
        <g
           id="g2537"
           transform="translate(1060.4814,289.2588)">
          <path
             d="m 0,0 c 5.052,0 9.173,4.118 9.173,9.17 0,5.054 -4.121,9.173 -9.173,9.173 -5.052,0 -9.17,-4.119 -9.17,-9.173 C -9.17,4.118 -5.052,0 0,0"
             style="fill:#e0f7ff;fill-opacity:1;fill-rule:evenodd;stroke:none"
             id="path2539" />
        </g>
        <g
           id="g2541"
           transform="translate(1061.9697,329.9111)">
          <path
             d="M 0,0 C 4.231,0 7.685,3.45 7.685,7.686 7.685,11.917 4.231,15.37 0,15.37 -4.231,15.37 -7.686,11.917 -7.686,7.686 -7.686,3.45 -4.231,0 0,0"
             style="fill:#e0f7ff;fill-opacity:1;fill-rule:evenodd;stroke:none"
             id="path2543" />
        </g>
        <g
           id="g2545"
           transform="translate(1000.7402,420.1416)">
          <path
             d="m 0,0 c 4.37,0 7.934,3.564 7.934,7.934 0,4.367 -3.564,7.93 -7.934,7.93 -4.37,0 -7.931,-3.563 -7.931,-7.93 C -7.931,3.564 -4.37,0 0,0"
             style="fill:#e0f7ff;fill-opacity:1;fill-rule:evenodd;stroke:none"
             id="path2547" />
        </g>
        <g
           id="g2549"
           transform="translate(1055.0293,433.5264)">
          <path
             d="m 0,0 c 6.688,0 12.146,5.458 12.146,12.147 0,6.69 -5.458,12.148 -12.146,12.148 -6.69,0 -12.148,-5.458 -12.148,-12.148 C -12.148,5.458 -6.69,0 0,0"
             style="fill:#e0f7ff;fill-opacity:1;fill-rule:evenodd;stroke:none"
             id="path2551" />
        </g>
        <g
           id="g2553"
           transform="translate(1058.4961,352.2207)">
          <path
             d="m 0,0 c 5.055,0 9.174,4.119 9.174,9.174 0,5.051 -4.119,9.17 -9.174,9.17 -5.051,0 -9.17,-4.119 -9.17,-9.17 C -9.17,4.119 -5.051,0 0,0"
             style="fill:#e0f7ff;fill-opacity:1;fill-rule:evenodd;stroke:none"
             id="path2555" />
        </g>
        <g
           id="g2557"
           transform="translate(1141.9551,436.5029)">
          <path
             d="m 0,0 c 4.919,0 8.931,4.012 8.931,8.931 0,4.919 -4.012,8.927 -8.931,8.927 -4.919,0 -8.928,-4.008 -8.928,-8.927 C -8.928,4.012 -4.919,0 0,0"
             style="fill:#e0f7ff;fill-opacity:1;fill-rule:evenodd;stroke:none"
             id="path2559" />
        </g>
      </g>
    </g>
  </g>
</svg>
